<svg id="Calque_1" data-name="Calque 1" xmlns="http://www.w3.org/2000/svg" viewBox="0 0 270.38 74.29"><defs><style>.cls-1{fill:#b0aaa9;}</style></defs><path class="cls-1" d="M3.26,52.2l1.87-3A14.73,14.73,0,0,0,13.27,52c3.45,0,7.56-1.58,7.41-5.54-.07-3.1-2.88-4-5.25-5-.94-.36-1.95-.79-3-1.08a20.16,20.16,0,0,1-5.61-2.74,6.83,6.83,0,0,1-3-6c0-6,5.4-9.36,11-9.36A18.92,18.92,0,0,1,24,25l-1.95,3.09A14.48,14.48,0,0,0,15.14,26c-3,0-6.34,1.58-6.41,5,0,1.8,1.08,2.81,2.74,3.53s3.74,1.59,5.76,2.38a22.51,22.51,0,0,1,5.61,2.81,7.38,7.38,0,0,1,3,6.12c-.07,6.77-6.48,9.93-12.53,9.93A17.14,17.14,0,0,1,3.26,52.2Z"/><path class="cls-1" d="M32.85,12.3a3.42,3.42,0,1,1,0,.08Zm.86,12,5.19-1.73V54.86H33.71Z"/><path class="cls-1" d="M89.16,54.86H83.9L83.83,33.4c0-4.82-2.31-7.56-7.56-7.34a10.91,10.91,0,0,0-5.33,2.3,8.18,8.18,0,0,1,.29,2.38V54.86H66V33.4c0-4.82-2.3-7.63-7.7-7.27a8.24,8.24,0,0,0-4.9,2.3V54.86H48.11V27.79c4.61-3.39,7.49-5.19,13.4-5.26a10.46,10.46,0,0,1,7.63,3.1,18.82,18.82,0,0,1,10.3-3.1c4.75,0,9.72,3.31,9.72,8.57Z"/><path class="cls-1" d="M113,22.6c8.56-.14,12.45,7.92,12.53,17.07,0,8.06-4,15.62-12.68,15.91a17.73,17.73,0,0,1-9.5-2.88V71.35l-5.19-1.87.07-41.41c-.07,0,4-5.4,14.69-5.54Zm-1.3,29.24c6.91-.44,7.78-7.21,7.78-12.53s-.87-13-7.42-13.25a13.29,13.29,0,0,0-8.78,2.52V49.1C105,50.18,108.45,52.05,111.69,51.84Z"/><path class="cls-1" d="M134.44,47.44V6.33l5.11-1.66V47.3c0,4.18,2.24,5.18,5.91,5.33v2.73C138.47,56,134.44,52.84,134.44,47.44Z"/><path class="cls-1" d="M169,54.64c-4.53,1.3-10.44,1.37-14.18-1.8-3.46-3-5.55-7.92-5.55-13.25.07-8.28,3.46-16.84,12.68-16.84,8.78,0,12,6,12.16,15.76H154.82c-.58,8.21,3.6,13.76,9.5,13.54,3.6-.07,6.19-1.29,8.86-2.59L174.4,52A20.6,20.6,0,0,1,169,54.64Zm-.14-19.15c0-4.61-2-9.5-6.7-9.5-5,0-6.84,4.89-7.2,9.43h13.83Z"/><path class="cls-1" d="M196.94,22.6c8.57-.14,12.45,7.92,12.53,17.07,0,8.06-4,15.62-12.68,15.91a17.73,17.73,0,0,1-9.5-2.88V71.35l-5.19-1.87.08-41.41c-.08,0,4-5.4,14.69-5.54Zm-1.3,29.24c6.91-.44,7.78-7.21,7.78-12.53s-.87-13-7.42-13.25a13.29,13.29,0,0,0-8.78,2.52V49.1C188.94,50.18,192.4,52.05,195.64,51.84Z"/><path class="cls-1" d="M232.94,22.6c8.57-.14,12.45,7.92,12.53,17.07,0,8.06-4,15.62-12.68,15.91a17.73,17.73,0,0,1-9.5-2.88V71.35l-5.19-1.87.08-41.41c-.08,0,4-5.4,14.69-5.54Zm-1.3,29.24c6.91-.44,7.78-7.21,7.78-12.53s-.87-13-7.42-13.25a13.29,13.29,0,0,0-8.78,2.52V49.1C224.94,50.18,228.4,52.05,231.64,51.84Z"/><path class="cls-1" d="M251.66,26.71V23.32h3.6V14.54l5.25-1.88V23.32h5.91v3.39h-5.91V47.23c0,4.17,2.23,5.18,5.91,5.33v2.73c-7,.65-11.16-2.52-11.16-7.92V26.71Z"/></svg>
